<mxfile host="app.diagrams.net" modified="2024-05-15T08:36:24.338Z" agent="Mozilla/5.0 (Windows NT 10.0; Win64; x64) AppleWebKit/537.36 (KHTML, like Gecko) Chrome/124.0.0.0 Safari/537.36" etag="kXMr8VzQAqandnNs1pGi" version="24.4.0" type="device">
  <diagram name="Page-1" id="Mw_2iUmT7knwPzZd49lW">
    <mxGraphModel dx="1398" dy="637" grid="1" gridSize="10" guides="1" tooltips="1" connect="1" arrows="1" fold="1" page="1" pageScale="1" pageWidth="850" pageHeight="1100" math="0" shadow="0">
      <root>
        <mxCell id="0" />
        <mxCell id="1" parent="0" />
        <mxCell id="WVIZSuo-AUQOJjj3iNQl-2" value="Crew" style="rounded=0;whiteSpace=wrap;html=1;" parent="1" vertex="1">
          <mxGeometry x="-560" y="292" width="120" height="60" as="geometry" />
        </mxCell>
        <mxCell id="WVIZSuo-AUQOJjj3iNQl-3" value="Series" style="rounded=0;whiteSpace=wrap;html=1;" parent="1" vertex="1">
          <mxGeometry x="-460" y="702" width="120" height="60" as="geometry" />
        </mxCell>
        <mxCell id="WVIZSuo-AUQOJjj3iNQl-4" value="Actor" style="rounded=0;whiteSpace=wrap;html=1;" parent="1" vertex="1">
          <mxGeometry x="45" y="252" width="120" height="60" as="geometry" />
        </mxCell>
        <mxCell id="WVIZSuo-AUQOJjj3iNQl-5" value="User" style="rounded=0;whiteSpace=wrap;html=1;" parent="1" vertex="1">
          <mxGeometry x="-170" y="702" width="120" height="60" as="geometry" />
        </mxCell>
        <mxCell id="WVIZSuo-AUQOJjj3iNQl-6" value="" style="endArrow=none;html=1;rounded=0;entryX=0.5;entryY=1;entryDx=0;entryDy=0;" parent="1" target="WVIZSuo-AUQOJjj3iNQl-7" edge="1">
          <mxGeometry width="50" height="50" relative="1" as="geometry">
            <mxPoint x="-510" y="292" as="sourcePoint" />
            <mxPoint x="-510" y="222" as="targetPoint" />
          </mxGeometry>
        </mxCell>
        <mxCell id="WVIZSuo-AUQOJjj3iNQl-7" value="" style="rhombus;whiteSpace=wrap;html=1;" parent="1" vertex="1">
          <mxGeometry x="-560" y="181" width="110" height="50" as="geometry" />
        </mxCell>
        <mxCell id="WVIZSuo-AUQOJjj3iNQl-8" value="" style="endArrow=none;html=1;rounded=0;exitX=1;exitY=0.5;exitDx=0;exitDy=0;" parent="1" source="WVIZSuo-AUQOJjj3iNQl-7" edge="1">
          <mxGeometry width="50" height="50" relative="1" as="geometry">
            <mxPoint x="-480" y="202" as="sourcePoint" />
            <mxPoint x="-260" y="193.1379310344828" as="targetPoint" />
          </mxGeometry>
        </mxCell>
        <mxCell id="WVIZSuo-AUQOJjj3iNQl-10" value="" style="rhombus;whiteSpace=wrap;html=1;" parent="1" vertex="1">
          <mxGeometry x="80" y="156" width="50" height="50" as="geometry" />
        </mxCell>
        <mxCell id="WVIZSuo-AUQOJjj3iNQl-11" value="" style="endArrow=none;html=1;rounded=0;exitX=0.5;exitY=0;exitDx=0;exitDy=0;entryX=0.5;entryY=1;entryDx=0;entryDy=0;" parent="1" source="WVIZSuo-AUQOJjj3iNQl-4" target="WVIZSuo-AUQOJjj3iNQl-10" edge="1">
          <mxGeometry width="50" height="50" relative="1" as="geometry">
            <mxPoint x="60" y="252" as="sourcePoint" />
            <mxPoint x="110" y="202" as="targetPoint" />
          </mxGeometry>
        </mxCell>
        <mxCell id="WVIZSuo-AUQOJjj3iNQl-15" value="" style="endArrow=none;html=1;rounded=0;exitX=0.5;exitY=0;exitDx=0;exitDy=0;" parent="1" source="WVIZSuo-AUQOJjj3iNQl-16" edge="1">
          <mxGeometry width="50" height="50" relative="1" as="geometry">
            <mxPoint x="100" y="376" as="sourcePoint" />
            <mxPoint x="100" y="312" as="targetPoint" />
          </mxGeometry>
        </mxCell>
        <mxCell id="WVIZSuo-AUQOJjj3iNQl-16" value="" style="rhombus;whiteSpace=wrap;html=1;" parent="1" vertex="1">
          <mxGeometry x="70" y="432" width="60" height="60" as="geometry" />
        </mxCell>
        <mxCell id="WVIZSuo-AUQOJjj3iNQl-21" value="" style="endArrow=none;html=1;rounded=0;exitX=0.5;exitY=0;exitDx=0;exitDy=0;" parent="1" source="WVIZSuo-AUQOJjj3iNQl-22" edge="1">
          <mxGeometry width="50" height="50" relative="1" as="geometry">
            <mxPoint x="-510" y="422" as="sourcePoint" />
            <mxPoint x="-510" y="352" as="targetPoint" />
          </mxGeometry>
        </mxCell>
        <mxCell id="WVIZSuo-AUQOJjj3iNQl-22" value="" style="rhombus;whiteSpace=wrap;html=1;" parent="1" vertex="1">
          <mxGeometry x="-570" y="402" width="90.5" height="61" as="geometry" />
        </mxCell>
        <mxCell id="WVIZSuo-AUQOJjj3iNQl-23" value="" style="endArrow=none;html=1;rounded=0;entryX=0.5;entryY=1;entryDx=0;entryDy=0;" parent="1" target="WVIZSuo-AUQOJjj3iNQl-22" edge="1">
          <mxGeometry width="50" height="50" relative="1" as="geometry">
            <mxPoint x="-520" y="742" as="sourcePoint" />
            <mxPoint x="-410" y="463" as="targetPoint" />
          </mxGeometry>
        </mxCell>
        <mxCell id="WVIZSuo-AUQOJjj3iNQl-24" value="" style="endArrow=none;html=1;rounded=0;entryX=-0.005;entryY=0.629;entryDx=0;entryDy=0;entryPerimeter=0;" parent="1" target="WVIZSuo-AUQOJjj3iNQl-3" edge="1">
          <mxGeometry width="50" height="50" relative="1" as="geometry">
            <mxPoint x="-520" y="742" as="sourcePoint" />
            <mxPoint x="-590" y="692" as="targetPoint" />
          </mxGeometry>
        </mxCell>
        <mxCell id="WVIZSuo-AUQOJjj3iNQl-25" value="" style="endArrow=none;html=1;rounded=0;exitX=1;exitY=0.5;exitDx=0;exitDy=0;" parent="1" source="WVIZSuo-AUQOJjj3iNQl-3" edge="1">
          <mxGeometry width="50" height="50" relative="1" as="geometry">
            <mxPoint x="-270" y="712" as="sourcePoint" />
            <mxPoint x="-250" y="732" as="targetPoint" />
          </mxGeometry>
        </mxCell>
        <mxCell id="WVIZSuo-AUQOJjj3iNQl-26" value="" style="rhombus;whiteSpace=wrap;html=1;" parent="1" vertex="1">
          <mxGeometry x="-280" y="702" width="60" height="60" as="geometry" />
        </mxCell>
        <mxCell id="WVIZSuo-AUQOJjj3iNQl-27" value="" style="endArrow=none;html=1;rounded=0;" parent="1" edge="1">
          <mxGeometry width="50" height="50" relative="1" as="geometry">
            <mxPoint x="-220" y="733" as="sourcePoint" />
            <mxPoint x="-170" y="733" as="targetPoint" />
          </mxGeometry>
        </mxCell>
        <mxCell id="WVIZSuo-AUQOJjj3iNQl-30" value="" style="endArrow=none;html=1;rounded=0;" parent="1" source="WVIZSuo-AUQOJjj3iNQl-31" edge="1">
          <mxGeometry width="50" height="50" relative="1" as="geometry">
            <mxPoint x="-110" y="912" as="sourcePoint" />
            <mxPoint x="-110" y="762" as="targetPoint" />
          </mxGeometry>
        </mxCell>
        <mxCell id="WVIZSuo-AUQOJjj3iNQl-32" value="" style="endArrow=none;html=1;rounded=0;" parent="1" target="WVIZSuo-AUQOJjj3iNQl-31" edge="1">
          <mxGeometry width="50" height="50" relative="1" as="geometry">
            <mxPoint x="-110" y="902" as="sourcePoint" />
            <mxPoint x="-110" y="762" as="targetPoint" />
          </mxGeometry>
        </mxCell>
        <mxCell id="WVIZSuo-AUQOJjj3iNQl-31" value="" style="ellipse;whiteSpace=wrap;html=1;aspect=fixed;" parent="1" vertex="1">
          <mxGeometry x="-130" y="862" width="40" height="40" as="geometry" />
        </mxCell>
        <mxCell id="WVIZSuo-AUQOJjj3iNQl-33" value="d" style="text;strokeColor=none;align=center;fillColor=none;html=1;verticalAlign=middle;whiteSpace=wrap;rounded=0;" parent="1" vertex="1">
          <mxGeometry x="-140" y="867" width="60" height="30" as="geometry" />
        </mxCell>
        <mxCell id="WVIZSuo-AUQOJjj3iNQl-34" value="" style="endArrow=none;html=1;rounded=0;" parent="1" edge="1">
          <mxGeometry width="50" height="50" relative="1" as="geometry">
            <mxPoint x="-128.57142857142867" y="921.9999999999998" as="sourcePoint" />
            <mxPoint x="-110" y="902" as="targetPoint" />
          </mxGeometry>
        </mxCell>
        <mxCell id="WVIZSuo-AUQOJjj3iNQl-35" value="" style="endArrow=none;html=1;rounded=0;" parent="1" source="H1yG4ymeUjrUNe-qHBud-4" edge="1">
          <mxGeometry width="50" height="50" relative="1" as="geometry">
            <mxPoint x="-30" y="962" as="sourcePoint" />
            <mxPoint x="-110" y="902" as="targetPoint" />
          </mxGeometry>
        </mxCell>
        <mxCell id="WVIZSuo-AUQOJjj3iNQl-36" value="" style="rounded=0;whiteSpace=wrap;html=1;" parent="1" vertex="1">
          <mxGeometry x="-250" y="962" width="120" height="60" as="geometry" />
        </mxCell>
        <mxCell id="WVIZSuo-AUQOJjj3iNQl-38" value="" style="rounded=0;whiteSpace=wrap;html=1;" parent="1" vertex="1">
          <mxGeometry x="-60" y="962" width="120" height="60" as="geometry" />
        </mxCell>
        <mxCell id="WVIZSuo-AUQOJjj3iNQl-39" value="Kids" style="text;strokeColor=none;align=center;fillColor=none;html=1;verticalAlign=middle;whiteSpace=wrap;rounded=0;" parent="1" vertex="1">
          <mxGeometry x="-219" y="977" width="60" height="30" as="geometry" />
        </mxCell>
        <mxCell id="WVIZSuo-AUQOJjj3iNQl-40" value="Adult" style="text;strokeColor=none;align=center;fillColor=none;html=1;verticalAlign=middle;whiteSpace=wrap;rounded=0;" parent="1" vertex="1">
          <mxGeometry x="-30" y="977" width="60" height="30" as="geometry" />
        </mxCell>
        <mxCell id="WVIZSuo-AUQOJjj3iNQl-54" value="" style="endArrow=none;html=1;rounded=0;exitX=0.5;exitY=1;exitDx=0;exitDy=0;entryX=0.5;entryY=0;entryDx=0;entryDy=0;" parent="1" source="msyL-cBScWKSjasjIkdG-21" target="WVIZSuo-AUQOJjj3iNQl-26" edge="1">
          <mxGeometry width="50" height="50" relative="1" as="geometry">
            <mxPoint x="-155" y="508" as="sourcePoint" />
            <mxPoint x="-70" y="492" as="targetPoint" />
          </mxGeometry>
        </mxCell>
        <mxCell id="WVIZSuo-AUQOJjj3iNQl-60" value="" style="endArrow=none;html=1;rounded=0;exitX=0.25;exitY=0;exitDx=0;exitDy=0;" parent="1" edge="1">
          <mxGeometry width="50" height="50" relative="1" as="geometry">
            <mxPoint x="-230" y="162" as="sourcePoint" />
            <mxPoint x="-260" y="102" as="targetPoint" />
          </mxGeometry>
        </mxCell>
        <mxCell id="WVIZSuo-AUQOJjj3iNQl-61" value="" style="ellipse;whiteSpace=wrap;html=1;" parent="1" vertex="1">
          <mxGeometry x="-310" y="72" width="75" height="50" as="geometry" />
        </mxCell>
        <mxCell id="eHl45EO7nh0UV__qY8ui-1" value="" style="endArrow=none;html=1;rounded=0;exitX=0.667;exitY=0;exitDx=0;exitDy=0;exitPerimeter=0;" parent="1" edge="1">
          <mxGeometry width="50" height="50" relative="1" as="geometry">
            <mxPoint x="-179.96000000000004" y="162" as="sourcePoint" />
            <mxPoint x="-80" y="112" as="targetPoint" />
          </mxGeometry>
        </mxCell>
        <mxCell id="eHl45EO7nh0UV__qY8ui-2" value="runtime" style="ellipse;whiteSpace=wrap;html=1;" parent="1" vertex="1">
          <mxGeometry x="-112.5" y="72" width="82.5" height="55" as="geometry" />
        </mxCell>
        <mxCell id="eHl45EO7nh0UV__qY8ui-3" value="title" style="text;strokeColor=none;align=center;fillColor=none;html=1;verticalAlign=middle;whiteSpace=wrap;rounded=0;" parent="1" vertex="1">
          <mxGeometry x="-302.5" y="82" width="60" height="30" as="geometry" />
        </mxCell>
        <mxCell id="eHl45EO7nh0UV__qY8ui-5" value="" style="endArrow=none;html=1;rounded=0;exitX=1;exitY=0.25;exitDx=0;exitDy=0;" parent="1" edge="1">
          <mxGeometry width="50" height="50" relative="1" as="geometry">
            <mxPoint x="-140" y="177" as="sourcePoint" />
            <mxPoint x="50" y="102" as="targetPoint" />
          </mxGeometry>
        </mxCell>
        <mxCell id="eHl45EO7nh0UV__qY8ui-6" value="" style="ellipse;whiteSpace=wrap;html=1;" parent="1" vertex="1">
          <mxGeometry x="-2.5" y="72" width="82.5" height="55" as="geometry" />
        </mxCell>
        <mxCell id="eHl45EO7nh0UV__qY8ui-7" value="ageRating" style="text;strokeColor=none;align=center;fillColor=none;html=1;verticalAlign=middle;whiteSpace=wrap;rounded=0;" parent="1" vertex="1">
          <mxGeometry x="10" y="84.5" width="60" height="30" as="geometry" />
        </mxCell>
        <mxCell id="eHl45EO7nh0UV__qY8ui-8" value="" style="endArrow=none;html=1;rounded=0;exitX=0;exitY=0.25;exitDx=0;exitDy=0;" parent="1" edge="1">
          <mxGeometry width="50" height="50" relative="1" as="geometry">
            <mxPoint x="-260" y="177" as="sourcePoint" />
            <mxPoint x="-332.5" y="132" as="targetPoint" />
          </mxGeometry>
        </mxCell>
        <mxCell id="eHl45EO7nh0UV__qY8ui-9" value="" style="ellipse;whiteSpace=wrap;html=1;" parent="1" vertex="1">
          <mxGeometry x="-382.5" y="102" width="75" height="50" as="geometry" />
        </mxCell>
        <mxCell id="eHl45EO7nh0UV__qY8ui-10" value="genre" style="text;strokeColor=none;align=center;fillColor=none;html=1;verticalAlign=middle;whiteSpace=wrap;rounded=0;" parent="1" vertex="1">
          <mxGeometry x="-375" y="112" width="60" height="30" as="geometry" />
        </mxCell>
        <mxCell id="eHl45EO7nh0UV__qY8ui-11" value="" style="endArrow=none;html=1;rounded=0;" parent="1" edge="1">
          <mxGeometry width="50" height="50" relative="1" as="geometry">
            <mxPoint x="-230" y="222" as="sourcePoint" />
            <mxPoint x="-280" y="272" as="targetPoint" />
          </mxGeometry>
        </mxCell>
        <mxCell id="eHl45EO7nh0UV__qY8ui-12" value="" style="ellipse;whiteSpace=wrap;html=1;" parent="1" vertex="1">
          <mxGeometry x="-317.5" y="242" width="90" height="60" as="geometry" />
        </mxCell>
        <mxCell id="eHl45EO7nh0UV__qY8ui-13" value="releaseYear" style="text;strokeColor=none;align=center;fillColor=none;html=1;verticalAlign=middle;whiteSpace=wrap;rounded=0;" parent="1" vertex="1">
          <mxGeometry x="-302.5" y="257" width="60" height="30" as="geometry" />
        </mxCell>
        <mxCell id="eHl45EO7nh0UV__qY8ui-14" value="" style="endArrow=none;html=1;rounded=0;exitX=1;exitY=0.5;exitDx=0;exitDy=0;" parent="1" source="WVIZSuo-AUQOJjj3iNQl-4" edge="1">
          <mxGeometry width="50" height="50" relative="1" as="geometry">
            <mxPoint x="150" y="282" as="sourcePoint" />
            <mxPoint x="240" y="272" as="targetPoint" />
          </mxGeometry>
        </mxCell>
        <mxCell id="eHl45EO7nh0UV__qY8ui-17" value="" style="endArrow=none;html=1;rounded=0;exitX=1;exitY=0.75;exitDx=0;exitDy=0;" parent="1" source="WVIZSuo-AUQOJjj3iNQl-4" edge="1">
          <mxGeometry width="50" height="50" relative="1" as="geometry">
            <mxPoint x="150" y="282" as="sourcePoint" />
            <mxPoint x="300" y="332" as="targetPoint" />
          </mxGeometry>
        </mxCell>
        <mxCell id="eHl45EO7nh0UV__qY8ui-18" value="" style="ellipse;whiteSpace=wrap;html=1;" parent="1" vertex="1">
          <mxGeometry x="270" y="292" width="90" height="60" as="geometry" />
        </mxCell>
        <mxCell id="eHl45EO7nh0UV__qY8ui-19" value="name" style="text;strokeColor=none;align=center;fillColor=none;html=1;verticalAlign=middle;whiteSpace=wrap;rounded=0;" parent="1" vertex="1">
          <mxGeometry x="285" y="307" width="60" height="30" as="geometry" />
        </mxCell>
        <mxCell id="eHl45EO7nh0UV__qY8ui-20" value="" style="endArrow=none;html=1;rounded=0;" parent="1" edge="1">
          <mxGeometry width="50" height="50" relative="1" as="geometry">
            <mxPoint x="350" y="402" as="sourcePoint" />
            <mxPoint x="300" y="352" as="targetPoint" />
          </mxGeometry>
        </mxCell>
        <mxCell id="eHl45EO7nh0UV__qY8ui-22" value="" style="ellipse;whiteSpace=wrap;html=1;" parent="1" vertex="1">
          <mxGeometry x="305" y="362" width="75" height="50" as="geometry" />
        </mxCell>
        <mxCell id="eHl45EO7nh0UV__qY8ui-23" value="firstname" style="text;strokeColor=none;align=center;fillColor=none;html=1;verticalAlign=middle;whiteSpace=wrap;rounded=0;" parent="1" vertex="1">
          <mxGeometry x="312.5" y="372" width="60" height="30" as="geometry" />
        </mxCell>
        <mxCell id="eHl45EO7nh0UV__qY8ui-26" value="" style="endArrow=none;html=1;rounded=0;" parent="1" edge="1">
          <mxGeometry width="50" height="50" relative="1" as="geometry">
            <mxPoint x="360" y="312" as="sourcePoint" />
            <mxPoint x="420" y="292" as="targetPoint" />
          </mxGeometry>
        </mxCell>
        <mxCell id="eHl45EO7nh0UV__qY8ui-27" value="" style="ellipse;whiteSpace=wrap;html=1;" parent="1" vertex="1">
          <mxGeometry x="380" y="262" width="90" height="60" as="geometry" />
        </mxCell>
        <mxCell id="eHl45EO7nh0UV__qY8ui-28" value="Lastname" style="text;strokeColor=none;align=center;fillColor=none;html=1;verticalAlign=middle;whiteSpace=wrap;rounded=0;" parent="1" vertex="1">
          <mxGeometry x="395" y="277" width="60" height="30" as="geometry" />
        </mxCell>
        <mxCell id="eHl45EO7nh0UV__qY8ui-29" value="" style="endArrow=none;html=1;rounded=0;" parent="1" edge="1">
          <mxGeometry width="50" height="50" relative="1" as="geometry">
            <mxPoint x="-630" y="272" as="sourcePoint" />
            <mxPoint x="-560" y="302" as="targetPoint" />
          </mxGeometry>
        </mxCell>
        <mxCell id="eHl45EO7nh0UV__qY8ui-32" value="" style="endArrow=none;html=1;rounded=0;exitX=0;exitY=0.5;exitDx=0;exitDy=0;" parent="1" source="WVIZSuo-AUQOJjj3iNQl-2" edge="1">
          <mxGeometry width="50" height="50" relative="1" as="geometry">
            <mxPoint x="-250" y="302" as="sourcePoint" />
            <mxPoint x="-660" y="342" as="targetPoint" />
          </mxGeometry>
        </mxCell>
        <mxCell id="eHl45EO7nh0UV__qY8ui-33" value="" style="ellipse;whiteSpace=wrap;html=1;" parent="1" vertex="1">
          <mxGeometry x="-720" y="332" width="120" height="80" as="geometry" />
        </mxCell>
        <mxCell id="eHl45EO7nh0UV__qY8ui-34" value="role" style="text;strokeColor=none;align=center;fillColor=none;html=1;verticalAlign=middle;whiteSpace=wrap;rounded=0;" parent="1" vertex="1">
          <mxGeometry x="-690" y="357" width="60" height="30" as="geometry" />
        </mxCell>
        <mxCell id="eHl45EO7nh0UV__qY8ui-35" value="" style="endArrow=none;html=1;rounded=0;" parent="1" edge="1">
          <mxGeometry width="50" height="50" relative="1" as="geometry">
            <mxPoint x="-440" y="322" as="sourcePoint" />
            <mxPoint x="-350" y="372" as="targetPoint" />
          </mxGeometry>
        </mxCell>
        <mxCell id="eHl45EO7nh0UV__qY8ui-36" value="" style="ellipse;whiteSpace=wrap;html=1;" parent="1" vertex="1">
          <mxGeometry x="-382.5" y="337" width="82.5" height="55" as="geometry" />
        </mxCell>
        <mxCell id="eHl45EO7nh0UV__qY8ui-37" value="name" style="text;strokeColor=none;align=center;fillColor=none;html=1;verticalAlign=middle;whiteSpace=wrap;rounded=0;" parent="1" vertex="1">
          <mxGeometry x="-367.5" y="349.5" width="60" height="30" as="geometry" />
        </mxCell>
        <mxCell id="eHl45EO7nh0UV__qY8ui-38" value="" style="endArrow=none;html=1;rounded=0;" parent="1" edge="1">
          <mxGeometry width="50" height="50" relative="1" as="geometry">
            <mxPoint x="-410" y="438" as="sourcePoint" />
            <mxPoint x="-360" y="388" as="targetPoint" />
          </mxGeometry>
        </mxCell>
        <mxCell id="eHl45EO7nh0UV__qY8ui-39" value="" style="endArrow=none;html=1;rounded=0;entryX=0.68;entryY=0.98;entryDx=0;entryDy=0;entryPerimeter=0;" parent="1" target="eHl45EO7nh0UV__qY8ui-36" edge="1">
          <mxGeometry width="50" height="50" relative="1" as="geometry">
            <mxPoint x="-310" y="452" as="sourcePoint" />
            <mxPoint x="-325" y="387" as="targetPoint" />
          </mxGeometry>
        </mxCell>
        <mxCell id="eHl45EO7nh0UV__qY8ui-42" value="" style="ellipse;whiteSpace=wrap;html=1;" parent="1" vertex="1">
          <mxGeometry x="-457.5" y="432" width="90" height="60" as="geometry" />
        </mxCell>
        <mxCell id="eHl45EO7nh0UV__qY8ui-43" value="Lastname" style="text;strokeColor=none;align=center;fillColor=none;html=1;verticalAlign=middle;whiteSpace=wrap;rounded=0;" parent="1" vertex="1">
          <mxGeometry x="-442.5" y="447" width="60" height="30" as="geometry" />
        </mxCell>
        <mxCell id="eHl45EO7nh0UV__qY8ui-44" value="" style="ellipse;whiteSpace=wrap;html=1;" parent="1" vertex="1">
          <mxGeometry x="-340" y="437" width="75" height="50" as="geometry" />
        </mxCell>
        <mxCell id="eHl45EO7nh0UV__qY8ui-45" value="firstname" style="text;strokeColor=none;align=center;fillColor=none;html=1;verticalAlign=middle;whiteSpace=wrap;rounded=0;" parent="1" vertex="1">
          <mxGeometry x="-332.5" y="447" width="60" height="30" as="geometry" />
        </mxCell>
        <mxCell id="eHl45EO7nh0UV__qY8ui-48" value="Produced" style="text;strokeColor=none;align=center;fillColor=none;html=1;verticalAlign=middle;whiteSpace=wrap;rounded=0;" parent="1" vertex="1">
          <mxGeometry x="-570" y="418.5" width="90.5" height="30" as="geometry" />
        </mxCell>
        <mxCell id="eHl45EO7nh0UV__qY8ui-50" value="" style="endArrow=none;html=1;rounded=0;" parent="1" edge="1">
          <mxGeometry width="50" height="50" relative="1" as="geometry">
            <mxPoint x="-507.5" y="812" as="sourcePoint" />
            <mxPoint x="-457.5" y="762" as="targetPoint" />
          </mxGeometry>
        </mxCell>
        <mxCell id="eHl45EO7nh0UV__qY8ui-51" value="" style="ellipse;whiteSpace=wrap;html=1;" parent="1" vertex="1">
          <mxGeometry x="-562.5" y="792" width="90" height="60" as="geometry" />
        </mxCell>
        <mxCell id="eHl45EO7nh0UV__qY8ui-53" value="Title" style="text;strokeColor=none;align=center;fillColor=none;html=1;verticalAlign=middle;whiteSpace=wrap;rounded=0;" parent="1" vertex="1">
          <mxGeometry x="-547.5" y="807" width="60" height="30" as="geometry" />
        </mxCell>
        <mxCell id="eHl45EO7nh0UV__qY8ui-54" value="" style="endArrow=none;html=1;rounded=0;entryX=0.5;entryY=1;entryDx=0;entryDy=0;" parent="1" edge="1">
          <mxGeometry width="50" height="50" relative="1" as="geometry">
            <mxPoint x="-417.5" y="702" as="sourcePoint" />
            <mxPoint x="-465" y="672" as="targetPoint" />
          </mxGeometry>
        </mxCell>
        <mxCell id="eHl45EO7nh0UV__qY8ui-60" value="" style="endArrow=none;html=1;rounded=0;exitX=0.75;exitY=0;exitDx=0;exitDy=0;" parent="1" source="WVIZSuo-AUQOJjj3iNQl-3" edge="1">
          <mxGeometry width="50" height="50" relative="1" as="geometry">
            <mxPoint x="-40" y="672" as="sourcePoint" />
            <mxPoint x="-350" y="660" as="targetPoint" />
          </mxGeometry>
        </mxCell>
        <mxCell id="eHl45EO7nh0UV__qY8ui-62" value="" style="endArrow=none;html=1;rounded=0;exitX=0.75;exitY=1;exitDx=0;exitDy=0;" parent="1" edge="1">
          <mxGeometry width="50" height="50" relative="1" as="geometry">
            <mxPoint x="-351.87" y="762" as="sourcePoint" />
            <mxPoint x="-351.87" y="902" as="targetPoint" />
          </mxGeometry>
        </mxCell>
        <mxCell id="eHl45EO7nh0UV__qY8ui-63" value="" style="ellipse;whiteSpace=wrap;html=1;" parent="1" vertex="1">
          <mxGeometry x="-401.25" y="872" width="120" height="80" as="geometry" />
        </mxCell>
        <mxCell id="eHl45EO7nh0UV__qY8ui-64" value="Genre" style="text;strokeColor=none;align=center;fillColor=none;html=1;verticalAlign=middle;whiteSpace=wrap;rounded=0;" parent="1" vertex="1">
          <mxGeometry x="-371.25" y="897" width="60" height="30" as="geometry" />
        </mxCell>
        <mxCell id="eHl45EO7nh0UV__qY8ui-65" value="" style="endArrow=none;html=1;rounded=0;" parent="1" edge="1">
          <mxGeometry width="50" height="50" relative="1" as="geometry">
            <mxPoint x="-630" y="782" as="sourcePoint" />
            <mxPoint x="-460" y="752" as="targetPoint" />
          </mxGeometry>
        </mxCell>
        <mxCell id="eHl45EO7nh0UV__qY8ui-66" value="" style="ellipse;whiteSpace=wrap;html=1;" parent="1" vertex="1">
          <mxGeometry x="-680" y="756" width="91.5" height="61" as="geometry" />
        </mxCell>
        <mxCell id="eHl45EO7nh0UV__qY8ui-67" value="ReleaseYear" style="text;strokeColor=none;align=center;fillColor=none;html=1;verticalAlign=middle;whiteSpace=wrap;rounded=0;" parent="1" vertex="1">
          <mxGeometry x="-663" y="771.5" width="55.75" height="30" as="geometry" />
        </mxCell>
        <mxCell id="eHl45EO7nh0UV__qY8ui-68" value="" style="endArrow=none;html=1;rounded=0;exitX=0.25;exitY=1;exitDx=0;exitDy=0;" parent="1" source="WVIZSuo-AUQOJjj3iNQl-3" edge="1">
          <mxGeometry width="50" height="50" relative="1" as="geometry">
            <mxPoint x="-180" y="752" as="sourcePoint" />
            <mxPoint x="-500" y="922" as="targetPoint" />
          </mxGeometry>
        </mxCell>
        <mxCell id="eHl45EO7nh0UV__qY8ui-69" value="" style="ellipse;whiteSpace=wrap;html=1;" parent="1" vertex="1">
          <mxGeometry x="-532.5" y="867" width="90" height="60" as="geometry" />
        </mxCell>
        <mxCell id="eHl45EO7nh0UV__qY8ui-70" value="AgeRating" style="text;strokeColor=none;align=center;fillColor=none;html=1;verticalAlign=middle;whiteSpace=wrap;rounded=0;" parent="1" vertex="1">
          <mxGeometry x="-517.5" y="882" width="60" height="30" as="geometry" />
        </mxCell>
        <mxCell id="eHl45EO7nh0UV__qY8ui-71" value="" style="endArrow=none;html=1;rounded=0;exitX=0.616;exitY=0.021;exitDx=0;exitDy=0;exitPerimeter=0;" parent="1" source="eHl45EO7nh0UV__qY8ui-72" edge="1">
          <mxGeometry width="50" height="50" relative="1" as="geometry">
            <mxPoint x="20" y="622" as="sourcePoint" />
            <mxPoint x="-60" y="612" as="targetPoint" />
          </mxGeometry>
        </mxCell>
        <mxCell id="eHl45EO7nh0UV__qY8ui-73" value="" style="endArrow=none;html=1;rounded=0;exitX=0.616;exitY=0.021;exitDx=0;exitDy=0;exitPerimeter=0;" parent="1" source="WVIZSuo-AUQOJjj3iNQl-5" target="eHl45EO7nh0UV__qY8ui-72" edge="1">
          <mxGeometry width="50" height="50" relative="1" as="geometry">
            <mxPoint x="-96" y="703" as="sourcePoint" />
            <mxPoint x="-60" y="612" as="targetPoint" />
          </mxGeometry>
        </mxCell>
        <mxCell id="eHl45EO7nh0UV__qY8ui-72" value="" style="ellipse;whiteSpace=wrap;html=1;" parent="1" vertex="1">
          <mxGeometry x="-100" y="592" width="90" height="60" as="geometry" />
        </mxCell>
        <mxCell id="eHl45EO7nh0UV__qY8ui-74" value="Email" style="text;strokeColor=none;align=center;fillColor=none;html=1;verticalAlign=middle;whiteSpace=wrap;rounded=0;" parent="1" vertex="1">
          <mxGeometry x="-85" y="607" width="60" height="30" as="geometry" />
        </mxCell>
        <mxCell id="eHl45EO7nh0UV__qY8ui-76" value="" style="endArrow=none;html=1;rounded=0;entryX=0.5;entryY=0;entryDx=0;entryDy=0;" parent="1" edge="1" target="msyL-cBScWKSjasjIkdG-22">
          <mxGeometry width="50" height="50" relative="1" as="geometry">
            <mxPoint x="-170" y="222" as="sourcePoint" />
            <mxPoint x="-130" y="262" as="targetPoint" />
          </mxGeometry>
        </mxCell>
        <mxCell id="eHl45EO7nh0UV__qY8ui-81" value="" style="endArrow=none;html=1;rounded=0;exitX=0.75;exitY=1;exitDx=0;exitDy=0;" parent="1" source="msyL-cBScWKSjasjIkdG-12" edge="1">
          <mxGeometry width="50" height="50" relative="1" as="geometry">
            <mxPoint x="80" y="852" as="sourcePoint" />
            <mxPoint x="-20" y="812" as="targetPoint" />
          </mxGeometry>
        </mxCell>
        <mxCell id="eHl45EO7nh0UV__qY8ui-92" value="" style="endArrow=none;html=1;rounded=0;exitX=0.563;exitY=1.017;exitDx=0;exitDy=0;exitPerimeter=0;" parent="1" source="WVIZSuo-AUQOJjj3iNQl-5" edge="1">
          <mxGeometry width="50" height="50" relative="1" as="geometry">
            <mxPoint x="40" y="802" as="sourcePoint" />
            <mxPoint x="-10" y="882" as="targetPoint" />
          </mxGeometry>
        </mxCell>
        <mxCell id="eHl45EO7nh0UV__qY8ui-93" value="" style="ellipse;whiteSpace=wrap;html=1;" parent="1" vertex="1">
          <mxGeometry x="-50" y="841" width="61.5" height="41" as="geometry" />
        </mxCell>
        <mxCell id="eHl45EO7nh0UV__qY8ui-94" value="Name" style="text;strokeColor=none;align=center;fillColor=none;html=1;verticalAlign=middle;whiteSpace=wrap;rounded=0;" parent="1" vertex="1">
          <mxGeometry x="-48.5" y="846.5" width="60" height="30" as="geometry" />
        </mxCell>
        <mxCell id="eHl45EO7nh0UV__qY8ui-95" value="" style="endArrow=none;html=1;rounded=0;exitX=0.813;exitY=0.024;exitDx=0;exitDy=0;exitPerimeter=0;" parent="1" edge="1">
          <mxGeometry width="50" height="50" relative="1" as="geometry">
            <mxPoint x="-0.0005000000001018634" y="845.9839999999999" as="sourcePoint" />
            <mxPoint x="80" y="836" as="targetPoint" />
          </mxGeometry>
        </mxCell>
        <mxCell id="eHl45EO7nh0UV__qY8ui-97" value="" style="endArrow=none;html=1;rounded=0;" parent="1" edge="1">
          <mxGeometry width="50" height="50" relative="1" as="geometry">
            <mxPoint x="10" y="867" as="sourcePoint" />
            <mxPoint x="60" y="882" as="targetPoint" />
          </mxGeometry>
        </mxCell>
        <mxCell id="eHl45EO7nh0UV__qY8ui-98" value="" style="ellipse;whiteSpace=wrap;html=1;" parent="1" vertex="1">
          <mxGeometry x="50" y="811" width="76.5" height="51" as="geometry" />
        </mxCell>
        <mxCell id="eHl45EO7nh0UV__qY8ui-99" value="Firstname" style="text;strokeColor=none;align=center;fillColor=none;html=1;verticalAlign=middle;whiteSpace=wrap;rounded=0;" parent="1" vertex="1">
          <mxGeometry x="57.5" y="821" width="60" height="30" as="geometry" />
        </mxCell>
        <mxCell id="eHl45EO7nh0UV__qY8ui-100" value="" style="ellipse;whiteSpace=wrap;html=1;" parent="1" vertex="1">
          <mxGeometry x="50" y="866" width="67.5" height="45" as="geometry" />
        </mxCell>
        <mxCell id="eHl45EO7nh0UV__qY8ui-101" value="Lastname" style="text;strokeColor=none;align=center;fillColor=none;html=1;verticalAlign=middle;whiteSpace=wrap;rounded=0;" parent="1" vertex="1">
          <mxGeometry x="53.75" y="872" width="60" height="30" as="geometry" />
        </mxCell>
        <mxCell id="eHl45EO7nh0UV__qY8ui-102" value="" style="endArrow=none;html=1;rounded=0;exitX=1;exitY=0.25;exitDx=0;exitDy=0;" parent="1" source="WVIZSuo-AUQOJjj3iNQl-5" edge="1">
          <mxGeometry width="50" height="50" relative="1" as="geometry">
            <mxPoint x="60" y="702" as="sourcePoint" />
            <mxPoint x="20" y="682" as="targetPoint" />
          </mxGeometry>
        </mxCell>
        <mxCell id="eHl45EO7nh0UV__qY8ui-106" value="N" style="text;strokeColor=none;align=center;fillColor=none;html=1;verticalAlign=middle;whiteSpace=wrap;rounded=0;" parent="1" vertex="1">
          <mxGeometry x="-435" y="177" width="60" height="30" as="geometry" />
        </mxCell>
        <mxCell id="eHl45EO7nh0UV__qY8ui-111" value="1" style="text;strokeColor=none;align=center;fillColor=none;html=1;verticalAlign=middle;whiteSpace=wrap;rounded=0;" parent="1" vertex="1">
          <mxGeometry x="-524" y="244" width="60" height="30" as="geometry" />
        </mxCell>
        <mxCell id="eHl45EO7nh0UV__qY8ui-112" value="1" style="text;strokeColor=none;align=center;fillColor=none;html=1;verticalAlign=middle;whiteSpace=wrap;rounded=0;" parent="1" vertex="1">
          <mxGeometry x="-536.25" y="372" width="60" height="30" as="geometry" />
        </mxCell>
        <mxCell id="eHl45EO7nh0UV__qY8ui-113" value="N" style="text;strokeColor=none;align=center;fillColor=none;html=1;verticalAlign=middle;whiteSpace=wrap;rounded=0;" parent="1" vertex="1">
          <mxGeometry x="-562.5" y="572" width="60" height="30" as="geometry" />
        </mxCell>
        <mxCell id="eHl45EO7nh0UV__qY8ui-114" value="N" style="text;strokeColor=none;align=center;fillColor=none;html=1;verticalAlign=middle;whiteSpace=wrap;rounded=0;" parent="1" vertex="1">
          <mxGeometry x="-340" y="702" width="60" height="30" as="geometry" />
        </mxCell>
        <mxCell id="eHl45EO7nh0UV__qY8ui-115" value="1" style="text;strokeColor=none;align=center;fillColor=none;html=1;verticalAlign=middle;whiteSpace=wrap;rounded=0;" parent="1" vertex="1">
          <mxGeometry x="-227.5" y="702" width="60" height="30" as="geometry" />
        </mxCell>
        <mxCell id="eHl45EO7nh0UV__qY8ui-116" value="M" style="text;strokeColor=none;align=center;fillColor=none;html=1;verticalAlign=middle;whiteSpace=wrap;rounded=0;" parent="1" vertex="1">
          <mxGeometry x="30" y="1080" width="60" height="30" as="geometry" />
        </mxCell>
        <mxCell id="eHl45EO7nh0UV__qY8ui-117" value="N" style="text;strokeColor=none;align=center;fillColor=none;html=1;verticalAlign=middle;whiteSpace=wrap;rounded=0;" parent="1" vertex="1">
          <mxGeometry x="50" y="357" width="60" height="30" as="geometry" />
        </mxCell>
        <mxCell id="eHl45EO7nh0UV__qY8ui-118" value="M" style="text;strokeColor=none;align=center;fillColor=none;html=1;verticalAlign=middle;whiteSpace=wrap;rounded=0;" parent="1" vertex="1">
          <mxGeometry x="90" y="212" width="60" height="30" as="geometry" />
        </mxCell>
        <mxCell id="eHl45EO7nh0UV__qY8ui-119" value="N" style="text;strokeColor=none;align=center;fillColor=none;html=1;verticalAlign=middle;whiteSpace=wrap;rounded=0;" parent="1" vertex="1">
          <mxGeometry x="-60" y="156" width="60" height="30" as="geometry" />
        </mxCell>
        <mxCell id="eHl45EO7nh0UV__qY8ui-120" value="N" style="text;strokeColor=none;align=center;fillColor=none;html=1;verticalAlign=middle;whiteSpace=wrap;rounded=0;" parent="1" vertex="1">
          <mxGeometry x="-235" y="379.5" width="60" height="30" as="geometry" />
        </mxCell>
        <mxCell id="eHl45EO7nh0UV__qY8ui-124" value="Casts" style="text;strokeColor=none;align=center;fillColor=none;html=1;verticalAlign=middle;whiteSpace=wrap;rounded=0;" parent="1" vertex="1">
          <mxGeometry x="74" y="166" width="60" height="30" as="geometry" />
        </mxCell>
        <mxCell id="eHl45EO7nh0UV__qY8ui-125" value="Casts" style="text;strokeColor=none;align=center;fillColor=none;html=1;verticalAlign=middle;whiteSpace=wrap;rounded=0;" parent="1" vertex="1">
          <mxGeometry x="70" y="447" width="60" height="30" as="geometry" />
        </mxCell>
        <mxCell id="eHl45EO7nh0UV__qY8ui-127" value="" style="endArrow=none;html=1;rounded=0;" parent="1" source="WVIZSuo-AUQOJjj3iNQl-26" edge="1">
          <mxGeometry width="50" height="50" relative="1" as="geometry">
            <mxPoint x="-170" y="792" as="sourcePoint" />
            <mxPoint x="-210" y="782" as="targetPoint" />
          </mxGeometry>
        </mxCell>
        <mxCell id="eHl45EO7nh0UV__qY8ui-128" value="" style="ellipse;whiteSpace=wrap;html=1;" parent="1" vertex="1">
          <mxGeometry x="-250" y="775.5" width="98.25" height="65.5" as="geometry" />
        </mxCell>
        <mxCell id="eHl45EO7nh0UV__qY8ui-129" value="watches" style="text;strokeColor=none;align=center;fillColor=none;html=1;verticalAlign=middle;whiteSpace=wrap;rounded=0;" parent="1" vertex="1">
          <mxGeometry x="-280" y="717" width="60" height="30" as="geometry" />
        </mxCell>
        <mxCell id="eHl45EO7nh0UV__qY8ui-132" value="Reviews" style="text;strokeColor=none;align=center;fillColor=none;html=1;verticalAlign=middle;whiteSpace=wrap;rounded=0;" parent="1" vertex="1">
          <mxGeometry x="-230.87" y="791" width="60" height="30" as="geometry" />
        </mxCell>
        <mxCell id="eHl45EO7nh0UV__qY8ui-141" value="Produced" style="text;strokeColor=none;align=center;fillColor=none;html=1;verticalAlign=middle;whiteSpace=wrap;rounded=0;" parent="1" vertex="1">
          <mxGeometry x="-552.5" y="191" width="92.5" height="30" as="geometry" />
        </mxCell>
        <mxCell id="H1yG4ymeUjrUNe-qHBud-3" value="" style="endArrow=none;html=1;rounded=0;exitX=0.655;exitY=-0.059;exitDx=0;exitDy=0;exitPerimeter=0;" parent="1" source="WVIZSuo-AUQOJjj3iNQl-36" edge="1">
          <mxGeometry width="50" height="50" relative="1" as="geometry">
            <mxPoint x="-180" y="972" as="sourcePoint" />
            <mxPoint x="-162.70037278657992" y="951.9999999999998" as="targetPoint" />
          </mxGeometry>
        </mxCell>
        <mxCell id="H1yG4ymeUjrUNe-qHBud-6" value="" style="endArrow=none;html=1;rounded=0;" parent="1" target="H1yG4ymeUjrUNe-qHBud-4" edge="1">
          <mxGeometry width="50" height="50" relative="1" as="geometry">
            <mxPoint x="-30" y="962" as="sourcePoint" />
            <mxPoint x="-110" y="902" as="targetPoint" />
          </mxGeometry>
        </mxCell>
        <mxCell id="H1yG4ymeUjrUNe-qHBud-4" value="U" style="text;strokeColor=none;align=center;fillColor=none;html=1;verticalAlign=middle;whiteSpace=wrap;rounded=0;" parent="1" vertex="1">
          <mxGeometry x="-100" y="922" width="60" height="30" as="geometry" />
        </mxCell>
        <mxCell id="H1yG4ymeUjrUNe-qHBud-7" value="" style="endArrow=none;html=1;rounded=0;exitX=0.5;exitY=0;exitDx=0;exitDy=0;" parent="1" edge="1">
          <mxGeometry width="50" height="50" relative="1" as="geometry">
            <mxPoint x="-200" y="162" as="sourcePoint" />
            <mxPoint x="-167.5" y="106" as="targetPoint" />
          </mxGeometry>
        </mxCell>
        <mxCell id="H1yG4ymeUjrUNe-qHBud-12" value="" style="endArrow=none;html=1;rounded=0;entryX=0.5;entryY=1;entryDx=0;entryDy=0;" parent="1" target="msyL-cBScWKSjasjIkdG-4" edge="1">
          <mxGeometry width="50" height="50" relative="1" as="geometry">
            <mxPoint x="-390" y="700" as="sourcePoint" />
            <mxPoint x="-351.72" y="668.4000000000001" as="targetPoint" />
          </mxGeometry>
        </mxCell>
        <mxCell id="msyL-cBScWKSjasjIkdG-1" value="" style="ellipse;whiteSpace=wrap;html=1;align=center;dashed=1;" parent="1" vertex="1">
          <mxGeometry x="-220" y="72" width="100" height="40" as="geometry" />
        </mxCell>
        <mxCell id="msyL-cBScWKSjasjIkdG-3" value="rating" style="text;strokeColor=none;align=center;fillColor=none;html=1;verticalAlign=middle;whiteSpace=wrap;rounded=0;" parent="1" vertex="1">
          <mxGeometry x="-200" y="77" width="60" height="30" as="geometry" />
        </mxCell>
        <mxCell id="msyL-cBScWKSjasjIkdG-4" value="Rating" style="ellipse;whiteSpace=wrap;html=1;align=center;dashed=1;" parent="1" vertex="1">
          <mxGeometry x="-442.5" y="577" width="100" height="40" as="geometry" />
        </mxCell>
        <mxCell id="msyL-cBScWKSjasjIkdG-6" value="" style="endArrow=none;html=1;rounded=0;" parent="1" edge="1">
          <mxGeometry width="50" height="50" relative="1" as="geometry">
            <mxPoint x="-290" y="1045" as="sourcePoint" />
            <mxPoint x="-250" y="1022" as="targetPoint" />
          </mxGeometry>
        </mxCell>
        <mxCell id="msyL-cBScWKSjasjIkdG-7" value="&lt;font style=&quot;font-size: 9px;&quot;&gt;AgeRestriction&lt;/font&gt;" style="ellipse;whiteSpace=wrap;html=1;" parent="1" vertex="1">
          <mxGeometry x="-351.87" y="1022" width="83.75" height="53" as="geometry" />
        </mxCell>
        <mxCell id="msyL-cBScWKSjasjIkdG-8" value="" style="endArrow=none;html=1;rounded=0;exitX=1;exitY=0.5;exitDx=0;exitDy=0;" parent="1" source="WVIZSuo-AUQOJjj3iNQl-38" edge="1">
          <mxGeometry width="50" height="50" relative="1" as="geometry">
            <mxPoint x="90" y="920" as="sourcePoint" />
            <mxPoint x="140" y="980" as="targetPoint" />
          </mxGeometry>
        </mxCell>
        <mxCell id="msyL-cBScWKSjasjIkdG-9" value="" style="ellipse;whiteSpace=wrap;html=1;" parent="1" vertex="1">
          <mxGeometry x="110" y="940" width="100" height="70" as="geometry" />
        </mxCell>
        <mxCell id="msyL-cBScWKSjasjIkdG-10" value="Censorship" style="text;strokeColor=none;align=center;fillColor=none;html=1;verticalAlign=middle;whiteSpace=wrap;rounded=0;" parent="1" vertex="1">
          <mxGeometry x="130" y="960" width="60" height="30" as="geometry" />
        </mxCell>
        <mxCell id="msyL-cBScWKSjasjIkdG-13" value="" style="endArrow=none;html=1;rounded=0;exitX=0.75;exitY=1;exitDx=0;exitDy=0;" parent="1" source="WVIZSuo-AUQOJjj3iNQl-5" target="msyL-cBScWKSjasjIkdG-12" edge="1">
          <mxGeometry width="50" height="50" relative="1" as="geometry">
            <mxPoint x="-80" y="762" as="sourcePoint" />
            <mxPoint x="-20" y="812" as="targetPoint" />
          </mxGeometry>
        </mxCell>
        <mxCell id="msyL-cBScWKSjasjIkdG-12" value="UserID" style="ellipse;whiteSpace=wrap;html=1;align=center;fontStyle=4;" parent="1" vertex="1">
          <mxGeometry x="-50" y="782" width="100" height="40" as="geometry" />
        </mxCell>
        <mxCell id="msyL-cBScWKSjasjIkdG-14" value="U" style="text;html=1;align=center;verticalAlign=middle;resizable=0;points=[];autosize=1;strokeColor=none;fillColor=none;" parent="1" vertex="1">
          <mxGeometry x="-160" y="922" width="30" height="30" as="geometry" />
        </mxCell>
        <mxCell id="msyL-cBScWKSjasjIkdG-17" value="SeriesID" style="ellipse;whiteSpace=wrap;html=1;align=center;fontStyle=4;" parent="1" vertex="1">
          <mxGeometry x="-517.5" y="632" width="100" height="40" as="geometry" />
        </mxCell>
        <mxCell id="msyL-cBScWKSjasjIkdG-18" value="Seasons" style="ellipse;shape=doubleEllipse;margin=3;whiteSpace=wrap;html=1;align=center;" parent="1" vertex="1">
          <mxGeometry x="-387.5" y="622" width="100" height="40" as="geometry" />
        </mxCell>
        <mxCell id="msyL-cBScWKSjasjIkdG-21" value="Movies" style="whiteSpace=wrap;html=1;align=center;" parent="1" vertex="1">
          <mxGeometry x="-272.5" y="160" width="130.88" height="64" as="geometry" />
        </mxCell>
        <mxCell id="msyL-cBScWKSjasjIkdG-22" value="MovieID" style="ellipse;whiteSpace=wrap;html=1;align=center;fontStyle=4;" parent="1" vertex="1">
          <mxGeometry x="-120" y="234" width="100" height="40" as="geometry" />
        </mxCell>
        <mxCell id="msyL-cBScWKSjasjIkdG-24" value="CrewID" style="ellipse;whiteSpace=wrap;html=1;align=center;fontStyle=4;" parent="1" vertex="1">
          <mxGeometry x="-684.25" y="237" width="100" height="40" as="geometry" />
        </mxCell>
        <mxCell id="msyL-cBScWKSjasjIkdG-25" value="ActorID" style="ellipse;whiteSpace=wrap;html=1;align=center;fontStyle=4;" parent="1" vertex="1">
          <mxGeometry x="210" y="252" width="100" height="40" as="geometry" />
        </mxCell>
        <mxCell id="msyL-cBScWKSjasjIkdG-26" value="Age" style="ellipse;whiteSpace=wrap;html=1;align=center;dashed=1;" parent="1" vertex="1">
          <mxGeometry x="-25" y="652" width="100" height="40" as="geometry" />
        </mxCell>
        <mxCell id="msyL-cBScWKSjasjIkdG-30" value="" style="shape=link;html=1;rounded=0;" parent="1" edge="1">
          <mxGeometry width="100" relative="1" as="geometry">
            <mxPoint x="-140" y="190" as="sourcePoint" />
            <mxPoint x="80" y="180" as="targetPoint" />
          </mxGeometry>
        </mxCell>
        <mxCell id="msyL-cBScWKSjasjIkdG-32" value="" style="shape=link;html=1;rounded=0;exitX=0.406;exitY=1.028;exitDx=0;exitDy=0;exitPerimeter=0;" parent="1" source="WVIZSuo-AUQOJjj3iNQl-3" edge="1">
          <mxGeometry width="100" relative="1" as="geometry">
            <mxPoint x="-425" y="781.17" as="sourcePoint" />
            <mxPoint x="-410" y="1090" as="targetPoint" />
          </mxGeometry>
        </mxCell>
        <mxCell id="msyL-cBScWKSjasjIkdG-33" value="" style="shape=link;html=1;rounded=0;" parent="1" edge="1">
          <mxGeometry width="100" relative="1" as="geometry">
            <mxPoint x="-415" y="1090" as="sourcePoint" />
            <mxPoint x="590" y="1080" as="targetPoint" />
            <Array as="points">
              <mxPoint x="-355" y="1090" />
            </Array>
          </mxGeometry>
        </mxCell>
        <mxCell id="msyL-cBScWKSjasjIkdG-34" value="" style="shape=link;html=1;rounded=0;width=-4.166666666666666;exitX=0.5;exitY=1;exitDx=0;exitDy=0;" parent="1" source="WVIZSuo-AUQOJjj3iNQl-16" edge="1">
          <mxGeometry width="100" relative="1" as="geometry">
            <mxPoint x="30" y="640" as="sourcePoint" />
            <mxPoint x="590" y="641.5799999999999" as="targetPoint" />
            <Array as="points">
              <mxPoint x="100" y="640" />
            </Array>
          </mxGeometry>
        </mxCell>
        <mxCell id="msyL-cBScWKSjasjIkdG-35" value="" style="shape=link;html=1;rounded=0;width=4.166666666666668;" parent="1" edge="1">
          <mxGeometry width="100" relative="1" as="geometry">
            <mxPoint x="590" y="640" as="sourcePoint" />
            <mxPoint x="590" y="1080" as="targetPoint" />
            <Array as="points" />
          </mxGeometry>
        </mxCell>
        <mxCell id="W1yEelrlbCifh_IAB6m3-2" value="Genre" style="shape=ext;margin=3;double=1;whiteSpace=wrap;html=1;align=center;" vertex="1" parent="1">
          <mxGeometry x="-120" y="412" width="100" height="40" as="geometry" />
        </mxCell>
        <mxCell id="W1yEelrlbCifh_IAB6m3-3" value="Type" style="ellipse;whiteSpace=wrap;html=1;align=center;" vertex="1" parent="1">
          <mxGeometry x="-11.25" y="472" width="100" height="40" as="geometry" />
        </mxCell>
        <mxCell id="W1yEelrlbCifh_IAB6m3-4" value="" style="endArrow=none;html=1;rounded=0;entryX=0.5;entryY=1;entryDx=0;entryDy=0;" edge="1" parent="1" source="W1yEelrlbCifh_IAB6m3-3" target="W1yEelrlbCifh_IAB6m3-2">
          <mxGeometry relative="1" as="geometry">
            <mxPoint x="-210" y="450" as="sourcePoint" />
            <mxPoint x="-50" y="450" as="targetPoint" />
          </mxGeometry>
        </mxCell>
        <mxCell id="W1yEelrlbCifh_IAB6m3-5" value="BelongsToGenre" style="shape=rhombus;perimeter=rhombusPerimeter;whiteSpace=wrap;html=1;align=center;" vertex="1" parent="1">
          <mxGeometry x="-150" y="322" width="120" height="60" as="geometry" />
        </mxCell>
        <mxCell id="W1yEelrlbCifh_IAB6m3-6" value="BelongsToGenre" style="shape=rhombus;perimeter=rhombusPerimeter;whiteSpace=wrap;html=1;align=center;" vertex="1" parent="1">
          <mxGeometry x="-175" y="487" width="120" height="60" as="geometry" />
        </mxCell>
        <mxCell id="W1yEelrlbCifh_IAB6m3-7" value="" style="endArrow=none;html=1;rounded=0;exitX=0;exitY=0;exitDx=0;exitDy=0;entryX=0.5;entryY=1;entryDx=0;entryDy=0;" edge="1" parent="1" source="eHl45EO7nh0UV__qY8ui-114" target="W1yEelrlbCifh_IAB6m3-6">
          <mxGeometry relative="1" as="geometry">
            <mxPoint x="-280" y="560" as="sourcePoint" />
            <mxPoint x="-120" y="550" as="targetPoint" />
          </mxGeometry>
        </mxCell>
        <mxCell id="W1yEelrlbCifh_IAB6m3-10" value="" style="endArrow=none;html=1;rounded=0;exitX=0.25;exitY=1;exitDx=0;exitDy=0;entryX=0.5;entryY=0;entryDx=0;entryDy=0;" edge="1" parent="1" source="W1yEelrlbCifh_IAB6m3-2" target="W1yEelrlbCifh_IAB6m3-6">
          <mxGeometry relative="1" as="geometry">
            <mxPoint x="-280" y="430" as="sourcePoint" />
            <mxPoint x="-120" y="480" as="targetPoint" />
          </mxGeometry>
        </mxCell>
        <mxCell id="W1yEelrlbCifh_IAB6m3-11" value="" style="endArrow=none;html=1;rounded=0;entryX=0.5;entryY=0;entryDx=0;entryDy=0;exitX=0.5;exitY=1;exitDx=0;exitDy=0;" edge="1" parent="1" source="W1yEelrlbCifh_IAB6m3-5" target="W1yEelrlbCifh_IAB6m3-2">
          <mxGeometry relative="1" as="geometry">
            <mxPoint x="-219" y="401" as="sourcePoint" />
            <mxPoint x="-59" y="401" as="targetPoint" />
          </mxGeometry>
        </mxCell>
        <mxCell id="W1yEelrlbCifh_IAB6m3-12" value="" style="endArrow=none;html=1;rounded=0;exitX=0.75;exitY=1;exitDx=0;exitDy=0;" edge="1" parent="1" source="msyL-cBScWKSjasjIkdG-21">
          <mxGeometry relative="1" as="geometry">
            <mxPoint x="-215" y="307" as="sourcePoint" />
            <mxPoint x="-90" y="320" as="targetPoint" />
          </mxGeometry>
        </mxCell>
        <mxCell id="W1yEelrlbCifh_IAB6m3-13" value="1" style="text;html=1;align=center;verticalAlign=middle;resizable=0;points=[];autosize=1;strokeColor=none;fillColor=none;" vertex="1" parent="1">
          <mxGeometry x="-205" y="558" width="30" height="30" as="geometry" />
        </mxCell>
        <mxCell id="W1yEelrlbCifh_IAB6m3-14" value="N" style="text;html=1;align=center;verticalAlign=middle;resizable=0;points=[];autosize=1;strokeColor=none;fillColor=none;" vertex="1" parent="1">
          <mxGeometry x="-155" y="458" width="30" height="30" as="geometry" />
        </mxCell>
        <mxCell id="W1yEelrlbCifh_IAB6m3-15" value="N" style="text;html=1;align=center;verticalAlign=middle;resizable=0;points=[];autosize=1;strokeColor=none;fillColor=none;" vertex="1" parent="1">
          <mxGeometry x="-125" y="378" width="30" height="30" as="geometry" />
        </mxCell>
        <mxCell id="W1yEelrlbCifh_IAB6m3-16" value="1" style="text;html=1;align=center;verticalAlign=middle;resizable=0;points=[];autosize=1;strokeColor=none;fillColor=none;" vertex="1" parent="1">
          <mxGeometry x="-155" y="278" width="30" height="30" as="geometry" />
        </mxCell>
        <mxCell id="W1yEelrlbCifh_IAB6m3-18" value="Subscribes" style="shape=rhombus;perimeter=rhombusPerimeter;whiteSpace=wrap;html=1;align=center;" vertex="1" parent="1">
          <mxGeometry x="40" y="702" width="120" height="60" as="geometry" />
        </mxCell>
        <mxCell id="W1yEelrlbCifh_IAB6m3-19" value="" style="endArrow=none;html=1;rounded=0;entryX=0;entryY=0.5;entryDx=0;entryDy=0;" edge="1" parent="1" target="W1yEelrlbCifh_IAB6m3-18">
          <mxGeometry relative="1" as="geometry">
            <mxPoint x="-50" y="731" as="sourcePoint" />
            <mxPoint x="110" y="731" as="targetPoint" />
            <Array as="points">
              <mxPoint x="30" y="731" />
            </Array>
          </mxGeometry>
        </mxCell>
        <mxCell id="W1yEelrlbCifh_IAB6m3-22" value="Newsletter" style="ellipse;whiteSpace=wrap;html=1;align=center;" vertex="1" parent="1">
          <mxGeometry x="345" y="672" width="100" height="40" as="geometry" />
        </mxCell>
        <mxCell id="W1yEelrlbCifh_IAB6m3-23" value="" style="endArrow=none;html=1;rounded=0;entryX=0.5;entryY=1;entryDx=0;entryDy=0;" edge="1" parent="1" target="W1yEelrlbCifh_IAB6m3-22">
          <mxGeometry relative="1" as="geometry">
            <mxPoint x="340" y="722" as="sourcePoint" />
            <mxPoint x="500" y="722" as="targetPoint" />
          </mxGeometry>
        </mxCell>
        <mxCell id="W1yEelrlbCifh_IAB6m3-25" value="1" style="text;html=1;align=center;verticalAlign=middle;resizable=0;points=[];autosize=1;strokeColor=none;fillColor=none;" vertex="1" parent="1">
          <mxGeometry x="-15" y="708" width="30" height="30" as="geometry" />
        </mxCell>
        <mxCell id="W1yEelrlbCifh_IAB6m3-26" value="Subscription" style="shape=ext;margin=3;double=1;whiteSpace=wrap;html=1;align=center;" vertex="1" parent="1">
          <mxGeometry x="260" y="722" width="100" height="40" as="geometry" />
        </mxCell>
        <mxCell id="W1yEelrlbCifh_IAB6m3-28" value="" style="shape=link;html=1;rounded=0;entryX=0;entryY=0.75;entryDx=0;entryDy=0;" edge="1" parent="1" target="W1yEelrlbCifh_IAB6m3-26">
          <mxGeometry relative="1" as="geometry">
            <mxPoint x="160" y="732" as="sourcePoint" />
            <mxPoint x="320" y="732" as="targetPoint" />
          </mxGeometry>
        </mxCell>
        <mxCell id="W1yEelrlbCifh_IAB6m3-29" value="" style="resizable=0;html=1;whiteSpace=wrap;align=right;verticalAlign=bottom;" connectable="0" vertex="1" parent="W1yEelrlbCifh_IAB6m3-28">
          <mxGeometry x="1" relative="1" as="geometry" />
        </mxCell>
        <mxCell id="W1yEelrlbCifh_IAB6m3-30" value="1" style="text;html=1;align=center;verticalAlign=middle;resizable=0;points=[];autosize=1;strokeColor=none;fillColor=none;" vertex="1" parent="1">
          <mxGeometry x="185" y="708" width="30" height="30" as="geometry" />
        </mxCell>
        <mxCell id="W1yEelrlbCifh_IAB6m3-31" value="StarRating" style="ellipse;whiteSpace=wrap;html=1;align=center;" vertex="1" parent="1">
          <mxGeometry x="-212.5" y="640" width="100" height="40" as="geometry" />
        </mxCell>
        <mxCell id="W1yEelrlbCifh_IAB6m3-32" value="" style="endArrow=none;html=1;rounded=0;exitX=1;exitY=0;exitDx=0;exitDy=0;entryX=0.5;entryY=1;entryDx=0;entryDy=0;" edge="1" parent="1" source="WVIZSuo-AUQOJjj3iNQl-26" target="W1yEelrlbCifh_IAB6m3-31">
          <mxGeometry relative="1" as="geometry">
            <mxPoint x="-280" y="680" as="sourcePoint" />
            <mxPoint x="-120" y="680" as="targetPoint" />
          </mxGeometry>
        </mxCell>
        <mxCell id="W1yEelrlbCifh_IAB6m3-35" value="" style="endArrow=none;html=1;rounded=0;" edge="1" parent="1">
          <mxGeometry width="50" height="50" relative="1" as="geometry">
            <mxPoint x="-80" y="910" as="sourcePoint" />
            <mxPoint x="-30" y="860" as="targetPoint" />
          </mxGeometry>
        </mxCell>
      </root>
    </mxGraphModel>
  </diagram>
</mxfile>
